<?xml version="1.0" encoding="UTF-8" standalone="no"?>
<!DOCTYPE svg PUBLIC "-//W3C//DTD SVG 1.1//EN"
 "http://www.w3.org/Graphics/SVG/1.1/DTD/svg11.dtd">
<!-- Generated by graphviz version 2.44.1 (20200629.0846)
 -->
<!-- Title: g Pages: 1 -->
<svg width="110pt" height="142pt"
 viewBox="0.00 0.00 110.00 141.60" xmlns="http://www.w3.org/2000/svg" xmlns:xlink="http://www.w3.org/1999/xlink">
<g id="graph0" class="graph" transform="scale(1 1) rotate(0) translate(4 137.6)">
<title>g</title>
<polygon fill="white" stroke="transparent" points="-4,4 -4,-137.6 106,-137.6 106,4 -4,4"/>
<g id="clust1" class="cluster">
<title>cluster_111433013</title>
<polygon fill="#ececec" stroke="black" points="8,-8 8,-125.6 94,-125.6 94,-8 8,-8"/>
<text text-anchor="middle" x="31.95" y="-109" font-family="Times New Roman,serif" font-size="14.00">unibg</text>
</g>
<g id="clust2" class="cluster">
<title>cluster_908121784</title>
<polygon fill="#d8d8d8" stroke="black" points="16,-16 16,-92.8 86,-92.8 86,-16 16,-16"/>
<text text-anchor="middle" x="36.06" y="-76.2" font-family="Times New Roman,serif" font-size="14.00">utils</text>
</g>
<!-- Dict430638766 -->
<g id="node1" class="node">
<title>Dict430638766</title>
<polygon fill="#ffffff" stroke="transparent" points="78,-60 24,-60 24,-24 78,-24 78,-60"/>
<text text-anchor="start" x="29.62" y="-37.4" font-family="Times New Roman,serif" font-size="14.00">(C)Dict</text>
<polygon fill="none" stroke="black" points="25,-29 25,-55 77,-55 77,-29 25,-29"/>
</g>
</g>
</svg>
