<?xml version="1.0" encoding="UTF-8" standalone="no"?>
<!DOCTYPE svg PUBLIC "-//W3C//DTD SVG 1.1//EN"
 "http://www.w3.org/Graphics/SVG/1.1/DTD/svg11.dtd">
<!-- Generated by graphviz version 2.44.1 (20200629.0846)
 -->
<!-- Title: g Pages: 1 -->
<svg width="1033pt" height="2208pt"
 viewBox="0.00 0.00 1033.00 2208.40" xmlns="http://www.w3.org/2000/svg" xmlns:xlink="http://www.w3.org/1999/xlink">
<g id="graph0" class="graph" transform="scale(1 1) rotate(0) translate(4 2204.4)">
<title>g</title>
<polygon fill="white" stroke="transparent" points="-4,4 -4,-2204.4 1029,-2204.4 1029,4 -4,4"/>
<g id="clust1" class="cluster">
<title>cluster_111433013</title>
<polygon fill="#ececec" stroke="black" points="8,-8 8,-2192.4 1017,-2192.4 1017,-8 8,-8"/>
<text text-anchor="middle" x="31.95" y="-2175.8" font-family="Times New Roman,serif" font-size="14.00">unibg</text>
</g>
<g id="clust2" class="cluster">
<title>cluster_1087734817</title>
<polygon fill="#d8d8d8" stroke="black" points="594,-830 594,-968.8 1009,-968.8 1009,-830 594,-830"/>
<text text-anchor="middle" x="628.43" y="-952.2" font-family="Times New Roman,serif" font-size="14.00">YassTree</text>
</g>
<g id="clust3" class="cluster">
<title>cluster_908121784</title>
<polygon fill="#d8d8d8" stroke="black" points="52,-16 52,-442.4 671,-442.4 671,-16 52,-16"/>
<text text-anchor="middle" x="72.06" y="-425.8" font-family="Times New Roman,serif" font-size="14.00">utils</text>
</g>
<!-- Handler699872683 -->
<g id="node1" class="node">
<title>Handler699872683</title>
<polygon fill="#ffffff" stroke="transparent" points="584,-1272 16,-1272 16,-502 584,-502 584,-1272"/>
<text text-anchor="start" x="21" y="-1254.4" font-family="Times New Roman,serif" font-size="14.00">(C)Handler</text>
<text text-anchor="start" x="21" y="-1230.4" font-family="Times New Roman,serif" font-size="14.00">&#45; &#160;&#160;currentSelector: StringBuilder [0..1]</text>
<text text-anchor="start" x="21" y="-1206.4" font-family="Times New Roman,serif" font-size="14.00">&#45; &#160;&#160;errorList: List&lt;String&gt; [0..*]</text>
<text text-anchor="start" x="21" y="-1182.4" font-family="Times New Roman,serif" font-size="14.00">&#45; &#160;&#160;input: TreeNodeStream [0..1]</text>
<text text-anchor="start" x="21" y="-1158.4" font-family="Times New Roman,serif" font-size="14.00">&#45; &#160;&#160;level: int [1]</text>
<text text-anchor="start" x="21" y="-1134.4" font-family="Times New Roman,serif" font-size="14.00">&#45; &#160;&#160;mixins: Mixins [0..1]</text>
<text text-anchor="start" x="21" y="-1110.4" font-family="Times New Roman,serif" font-size="14.00">&#45; &#160;&#160;propertiesSb: List&lt;StringBuilder&gt; [0..*]</text>
<text text-anchor="start" x="21" y="-1086.4" font-family="Times New Roman,serif" font-size="14.00">&#45; &#160;&#160;sb: List&lt;StringBuilder&gt; [0..*]</text>
<text text-anchor="start" x="21" y="-1062.4" font-family="Times New Roman,serif" font-size="14.00">&#45; &#160;&#160;symbolTable: SymbolTable [0..1]</text>
<text text-anchor="start" x="21" y="-1038.4" font-family="Times New Roman,serif" font-size="14.00">+ checkMixinReference(identifier: CommonTree): boolean</text>
<text text-anchor="start" x="21" y="-1014.4" font-family="Times New Roman,serif" font-size="14.00">&#45; checkVarReference(identifier: CommonTree): boolean</text>
<text text-anchor="start" x="21" y="-990.4" font-family="Times New Roman,serif" font-size="14.00">&#45; checkVarReference(identifier: CommonTree, type: Types): boolean</text>
<text text-anchor="start" x="21" y="-966.4" font-family="Times New Roman,serif" font-size="14.00">+ declareMixin(identifier: CommonTree, mixin: Mixin)</text>
<text text-anchor="start" x="21" y="-942.4" font-family="Times New Roman,serif" font-size="14.00">+ declareVar(identifier: CommonTree, symbol: Symbol)</text>
<text text-anchor="start" x="21" y="-918.4" font-family="Times New Roman,serif" font-size="14.00">&#45; declareVirtualVar(name: String, symbol: Symbol)</text>
<text text-anchor="start" x="21" y="-894.4" font-family="Times New Roman,serif" font-size="14.00">+ decrementLevel()</text>
<text text-anchor="start" x="20.99" y="-870.4" font-family="Times New Roman,serif" font-size="14.00">+ foreach(element: CommonTree, index: CommonTree, value: CommonTree, body: CommonTree)</text>
<text text-anchor="start" x="21" y="-846.4" font-family="Times New Roman,serif" font-size="14.00">+ foreach(element: CommonTree, body: CommonTree)</text>
<text text-anchor="start" x="21" y="-822.4" font-family="Times New Roman,serif" font-size="14.00">&#45; foreach(element: CommonTree, index: String, value: String, body: CommonTree)</text>
<text text-anchor="start" x="21" y="-798.4" font-family="Times New Roman,serif" font-size="14.00">+ getSpecificValue(element: CommonTree, index: CommonTree): String</text>
<text text-anchor="start" x="21" y="-774.4" font-family="Times New Roman,serif" font-size="14.00">&#45; getVar(identifier: CommonTree, checkType: boolean): Symbol</text>
<text text-anchor="start" x="21" y="-750.4" font-family="Times New Roman,serif" font-size="14.00">+ getVarValue(identifier: CommonTree): Object</text>
<text text-anchor="start" x="21" y="-726.4" font-family="Times New Roman,serif" font-size="14.00">&#45; getVarValue(identifier: CommonTree, type: Types): Object</text>
<text text-anchor="start" x="21" y="-702.4" font-family="Times New Roman,serif" font-size="14.00">&#45; handleError(error: Errors, tk: CommonTree)</text>
<text text-anchor="start" x="21" y="-678.4" font-family="Times New Roman,serif" font-size="14.00">+ incrementLevel()</text>
<text text-anchor="start" x="21" y="-654.4" font-family="Times New Roman,serif" font-size="14.00">+ mixinCall(identifier: CommonTree, arguments: List&lt;Object&gt;)</text>
<text text-anchor="start" x="21" y="-630.4" font-family="Times New Roman,serif" font-size="14.00">+ normalizeWhiteSpace(input: StringBuilder): StringBuilder</text>
<text text-anchor="start" x="21" y="-606.4" font-family="Times New Roman,serif" font-size="14.00">+ popSb()</text>
<text text-anchor="start" x="21" y="-582.4" font-family="Times New Roman,serif" font-size="14.00">+ pushSb()</text>
<text text-anchor="start" x="21" y="-558.4" font-family="Times New Roman,serif" font-size="14.00">+ resetCurrentSelector(length: int)</text>
<text text-anchor="start" x="21" y="-534.4" font-family="Times New Roman,serif" font-size="14.00">+ trim(sb: StringBuilder, character: char): StringBuilder</text>
<text text-anchor="start" x="21" y="-510.4" font-family="Times New Roman,serif" font-size="14.00">+ writeLine(string: String)</text>
<polygon fill="black" stroke="black" points="16,-1247 16,-1247 584,-1247 584,-1247 16,-1247"/>
<polygon fill="black" stroke="black" points="16,-1055 16,-1055 584,-1055 584,-1055 16,-1055"/>
<polygon fill="none" stroke="black" points="16,-502 16,-1272 584,-1272 584,-502 16,-502"/>
</g>
<!-- Mixins430638766 -->
<g id="node6" class="node">
<title>Mixins430638766</title>
<polygon fill="#ffffff" stroke="transparent" points="343.5,-349.6 60.5,-349.6 60.5,-203.6 343.5,-203.6 343.5,-349.6"/>
<text text-anchor="start" x="66" y="-332" font-family="Times New Roman,serif" font-size="14.00">(C)Mixins</text>
<text text-anchor="start" x="66" y="-308" font-family="Times New Roman,serif" font-size="14.00">&#45; &#160;&#160;mxn: Map&lt;String, Mixin&gt; [0..*]</text>
<text text-anchor="start" x="66" y="-284" font-family="Times New Roman,serif" font-size="14.00">+ assign(name: String, value: Mixin): Object</text>
<text text-anchor="start" x="66" y="-260" font-family="Times New Roman,serif" font-size="14.00">+ defined(name: String): boolean</text>
<text text-anchor="start" x="66" y="-236" font-family="Times New Roman,serif" font-size="14.00">+ resolve(key: String): Mixin</text>
<text text-anchor="start" x="65.96" y="-212" font-family="Times New Roman,serif" font-size="14.00">+ resolve(key: String, defaultObj: Mixin): Mixin</text>
<polygon fill="black" stroke="black" points="61,-324.6 61,-324.6 344,-324.6 344,-324.6 61,-324.6"/>
<polygon fill="black" stroke="black" points="61,-300.6 61,-300.6 344,-300.6 344,-300.6 61,-300.6"/>
<polygon fill="none" stroke="black" points="60.5,-203.6 60.5,-349.6 343.5,-349.6 343.5,-203.6 60.5,-203.6"/>
</g>
<!-- Handler699872683&#45;&gt;Mixins430638766 -->
<g id="edge1" class="edge">
<title>Handler699872683&#45;&gt;Mixins430638766</title>
<path fill="none" stroke="black" d="M238.14,-501.99C229.56,-448.7 221.54,-398.93 215.25,-359.87"/>
<polygon fill="black" stroke="black" points="218.65,-358.98 213.61,-349.66 211.74,-360.09 218.65,-358.98"/>
<text text-anchor="middle" x="254.06" y="-471.4" font-family="Times New Roman,serif" font-size="14.00">mixins</text>
<text text-anchor="middle" x="254.06" y="-454.6" font-family="Times New Roman,serif" font-size="14.00">[0..1]</text>
</g>
<!-- SymbolTable430638766 -->
<g id="node8" class="node">
<title>SymbolTable430638766</title>
<polygon fill="#ffffff" stroke="transparent" points="662.5,-409.6 361.5,-409.6 361.5,-143.6 662.5,-143.6 662.5,-409.6"/>
<text text-anchor="start" x="367" y="-392" font-family="Times New Roman,serif" font-size="14.00">(C)SymbolTable</text>
<text text-anchor="start" x="367" y="-368" font-family="Times New Roman,serif" font-size="14.00">&#45; &#160;&#160;parent: SymbolTable [0..1]</text>
<text text-anchor="start" x="367" y="-344" font-family="Times New Roman,serif" font-size="14.00">&#45; &#160;&#160;sym: Map&lt;String, Symbol&gt; [0..*]</text>
<text text-anchor="start" x="367" y="-320" font-family="Times New Roman,serif" font-size="14.00">+ assign(name: String, value: Symbol): Object</text>
<text text-anchor="start" x="367" y="-296" font-family="Times New Roman,serif" font-size="14.00">+ createScope(): SymbolTable</text>
<text text-anchor="start" x="367" y="-272" font-family="Times New Roman,serif" font-size="14.00">+ defined(name: String): boolean</text>
<text text-anchor="start" x="367" y="-248" font-family="Times New Roman,serif" font-size="14.00">+ definedLocally(name: String): boolean</text>
<text text-anchor="start" x="367" y="-224" font-family="Times New Roman,serif" font-size="14.00">+ resolve(key: String): Symbol</text>
<text text-anchor="start" x="366.63" y="-200" font-family="Times New Roman,serif" font-size="14.00">+ resolve(key: String, defaultObj: Symbol): Symbol</text>
<text text-anchor="start" x="367" y="-176" font-family="Times New Roman,serif" font-size="14.00">+ undefine(name: String): Object</text>
<text text-anchor="start" x="367" y="-152" font-family="Times New Roman,serif" font-size="14.00">+ undefineLocally(name: String): Object</text>
<polygon fill="black" stroke="black" points="362,-384.6 362,-384.6 663,-384.6 663,-384.6 362,-384.6"/>
<polygon fill="black" stroke="black" points="362,-336.6 362,-336.6 663,-336.6 663,-336.6 362,-336.6"/>
<polygon fill="none" stroke="black" points="361.5,-143.6 361.5,-409.6 662.5,-409.6 662.5,-143.6 361.5,-143.6"/>
</g>
<!-- Handler699872683&#45;&gt;SymbolTable430638766 -->
<g id="edge2" class="edge">
<title>Handler699872683&#45;&gt;SymbolTable430638766</title>
<path fill="none" stroke="black" d="M433.81,-501.99C443.88,-473.1 453.58,-445.25 462.53,-419.57"/>
<polygon fill="black" stroke="black" points="465.93,-420.44 465.92,-409.84 459.32,-418.13 465.93,-420.44"/>
<text text-anchor="middle" x="485.55" y="-471.4" font-family="Times New Roman,serif" font-size="14.00">symbolTable</text>
<text text-anchor="middle" x="485.55" y="-454.6" font-family="Times New Roman,serif" font-size="14.00">[0..1]</text>
</g>
<!-- YassTree699872683 -->
<g id="node2" class="node">
<title>YassTree699872683</title>
<polygon fill="#ffffff" stroke="transparent" points="825,-2159.6 537,-2159.6 537,-1341.6 825,-1341.6 825,-2159.6"/>
<text text-anchor="start" x="542" y="-2142" font-family="Times New Roman,serif" font-size="14.00">(C)YassTree</text>
<text text-anchor="start" x="542" y="-2118" font-family="Times New Roman,serif" font-size="14.00"># &#160;&#160;args_stack: Stack&lt;args_scope&gt; [0..*]</text>
<text text-anchor="start" x="542" y="-2094" font-family="Times New Roman,serif" font-size="14.00"># &#160;&#160;h: Handler [0..1]</text>
<text text-anchor="start" x="541.9" y="-2070" font-family="Times New Roman,serif" font-size="14.00"># &#160;&#160;selectors_stack: Stack&lt;selectors_scope&gt; [0..*]</text>
<text text-anchor="start" x="542" y="-2046" font-family="Times New Roman,serif" font-size="14.00">+ args(): String</text>
<text text-anchor="start" x="542" y="-2022" font-family="Times New Roman,serif" font-size="14.00">+ attrib()</text>
<text text-anchor="start" x="542" y="-1998" font-family="Times New Roman,serif" font-size="14.00">+ attribRelate()</text>
<text text-anchor="start" x="542" y="-1974" font-family="Times New Roman,serif" font-size="14.00">+ block()</text>
<text text-anchor="start" x="542" y="-1950" font-family="Times New Roman,serif" font-size="14.00">+ dict(): Dict</text>
<text text-anchor="start" x="542" y="-1926" font-family="Times New Roman,serif" font-size="14.00">+ dictItem(dictionary: Dict)</text>
<text text-anchor="start" x="542" y="-1902" font-family="Times New Roman,serif" font-size="14.00">+ element()</text>
<text text-anchor="start" x="542" y="-1878" font-family="Times New Roman,serif" font-size="14.00">+ expr()</text>
<text text-anchor="start" x="542" y="-1854" font-family="Times New Roman,serif" font-size="14.00">+ foreach()</text>
<text text-anchor="start" x="542" y="-1830" font-family="Times New Roman,serif" font-size="14.00">+ foreachBody()</text>
<text text-anchor="start" x="542" y="-1806" font-family="Times New Roman,serif" font-size="14.00">+ identifier(): String</text>
<text text-anchor="start" x="542" y="-1782" font-family="Times New Roman,serif" font-size="14.00"># init()</text>
<text text-anchor="start" x="542" y="-1758" font-family="Times New Roman,serif" font-size="14.00">+ list(): List</text>
<text text-anchor="start" x="542" y="-1734" font-family="Times New Roman,serif" font-size="14.00">+ measurement(): String</text>
<text text-anchor="start" x="542" y="-1710" font-family="Times New Roman,serif" font-size="14.00">+ mixin(): Mixin</text>
<text text-anchor="start" x="542" y="-1686" font-family="Times New Roman,serif" font-size="14.00">+ mixinBody()</text>
<text text-anchor="start" x="542" y="-1662" font-family="Times New Roman,serif" font-size="14.00">+ mixinCall()</text>
<text text-anchor="start" x="542" y="-1638" font-family="Times New Roman,serif" font-size="14.00">+ nextElement()</text>
<text text-anchor="start" x="542" y="-1614" font-family="Times New Roman,serif" font-size="14.00">+ property()</text>
<text text-anchor="start" x="542" y="-1590" font-family="Times New Roman,serif" font-size="14.00">+ pseudo()</text>
<text text-anchor="start" x="542" y="-1566" font-family="Times New Roman,serif" font-size="14.00">+ ruleset()</text>
<text text-anchor="start" x="542" y="-1542" font-family="Times New Roman,serif" font-size="14.00">+ selector()</text>
<text text-anchor="start" x="542" y="-1518" font-family="Times New Roman,serif" font-size="14.00">+ selectorPrefix()</text>
<text text-anchor="start" x="542" y="-1494" font-family="Times New Roman,serif" font-size="14.00">+ selectors(): StringBuilder</text>
<text text-anchor="start" x="542" y="-1470" font-family="Times New Roman,serif" font-size="14.00">+ statement()</text>
<text text-anchor="start" x="542" y="-1446" font-family="Times New Roman,serif" font-size="14.00">+ stylesheet()</text>
<text text-anchor="start" x="542" y="-1422" font-family="Times New Roman,serif" font-size="14.00">+ variableAtom(): String</text>
<text text-anchor="start" x="542" y="-1398" font-family="Times New Roman,serif" font-size="14.00">+ variableDeclaration()</text>
<text text-anchor="start" x="542" y="-1374" font-family="Times New Roman,serif" font-size="14.00">+ variableInterpolation(): String</text>
<text text-anchor="start" x="542" y="-1350" font-family="Times New Roman,serif" font-size="14.00">+ variableValue(identifier: CommonTree)</text>
<polygon fill="black" stroke="black" points="537,-2134.6 537,-2134.6 825,-2134.6 825,-2134.6 537,-2134.6"/>
<polygon fill="black" stroke="black" points="537,-2062.6 537,-2062.6 825,-2062.6 825,-2062.6 537,-2062.6"/>
<polygon fill="none" stroke="black" points="537,-1341.6 537,-2159.6 825,-2159.6 825,-1341.6 537,-1341.6"/>
</g>
<!-- YassTree699872683&#45;&gt;Handler699872683 -->
<g id="edge5" class="edge">
<title>YassTree699872683&#45;&gt;Handler699872683</title>
<path fill="none" stroke="black" d="M536.96,-1423.87C516.37,-1377.31 495.01,-1329 473.92,-1281.32"/>
<polygon fill="black" stroke="black" points="477.1,-1279.83 469.85,-1272.1 470.69,-1282.67 477.1,-1279.83"/>
<text text-anchor="middle" x="505.16" y="-1311" font-family="Times New Roman,serif" font-size="14.00">h</text>
<text text-anchor="middle" x="505.16" y="-1294.2" font-family="Times New Roman,serif" font-size="14.00">[0..1]</text>
</g>
<!-- args_scope852639703 -->
<g id="node3" class="node">
<title>args_scope852639703</title>
<polygon fill="#ffffff" stroke="transparent" points="759.5,-912 602.5,-912 602.5,-862 759.5,-862 759.5,-912"/>
<text text-anchor="start" x="608" y="-894.4" font-family="Times New Roman,serif" font-size="14.00">(C)args_scope</text>
<text text-anchor="start" x="607.81" y="-870.4" font-family="Times New Roman,serif" font-size="14.00"># &#160;&#160;sb: StringBuilder [0..1]</text>
<polygon fill="black" stroke="black" points="603,-887 603,-887 760,-887 760,-887 603,-887"/>
<polygon fill="none" stroke="black" points="602.5,-862 602.5,-912 759.5,-912 759.5,-862 602.5,-862"/>
</g>
<!-- YassTree699872683&#45;&gt;args_scope852639703 -->
<g id="edge6" class="edge">
<title>YassTree699872683&#45;&gt;args_scope852639703</title>
<path fill="none" stroke="black" d="M681,-1341.51C681,-1170.64 681,-995 681,-922.5"/>
<polygon fill="black" stroke="black" points="684.5,-922.16 681,-912.16 677.5,-922.16 684.5,-922.16"/>
<text text-anchor="middle" x="710.54" y="-1311" font-family="Times New Roman,serif" font-size="14.00">args_stack</text>
<text text-anchor="middle" x="710.54" y="-1294.2" font-family="Times New Roman,serif" font-size="14.00">[0..*]</text>
</g>
<!-- selectors_scope852639703 -->
<g id="node4" class="node">
<title>selectors_scope852639703</title>
<polygon fill="#ffffff" stroke="transparent" points="1000.5,-936 777.5,-936 777.5,-838 1000.5,-838 1000.5,-936"/>
<text text-anchor="start" x="783" y="-918.4" font-family="Times New Roman,serif" font-size="14.00">(C)selectors_scope</text>
<text text-anchor="start" x="782.79" y="-894.4" font-family="Times New Roman,serif" font-size="14.00"># &#160;&#160;firstTokenIsParentRef: boolean [1]</text>
<text text-anchor="start" x="783" y="-870.4" font-family="Times New Roman,serif" font-size="14.00"># &#160;&#160;firstTokenSet: boolean [1]</text>
<text text-anchor="start" x="783" y="-846.4" font-family="Times New Roman,serif" font-size="14.00"># &#160;&#160;sb: StringBuilder [0..1]</text>
<polygon fill="black" stroke="black" points="778,-911 778,-911 1001,-911 1001,-911 778,-911"/>
<polygon fill="none" stroke="black" points="777.5,-838 777.5,-936 1000.5,-936 1000.5,-838 777.5,-838"/>
</g>
<!-- YassTree699872683&#45;&gt;selectors_scope852639703 -->
<g id="edge7" class="edge">
<title>YassTree699872683&#45;&gt;selectors_scope852639703</title>
<path fill="none" stroke="black" d="M779.52,-1341.51C816.81,-1187.02 855.05,-1028.62 874.98,-946.09"/>
<polygon fill="black" stroke="black" points="878.43,-946.71 877.37,-936.16 871.62,-945.06 878.43,-946.71"/>
<text text-anchor="middle" x="833.37" y="-1311" font-family="Times New Roman,serif" font-size="14.00">selectors_stack</text>
<text text-anchor="middle" x="833.37" y="-1294.2" font-family="Times New Roman,serif" font-size="14.00">[0..*]</text>
</g>
<!-- Mixin430638766 -->
<g id="node5" class="node">
<title>Mixin430638766</title>
<polygon fill="#ffffff" stroke="transparent" points="350,-74 60,-74 60,-24 350,-24 350,-74"/>
<text text-anchor="start" x="65" y="-56.4" font-family="Times New Roman,serif" font-size="14.00">(C)Mixin</text>
<text text-anchor="start" x="64.99" y="-32.4" font-family="Times New Roman,serif" font-size="14.00">&#45; &#160;&#160;_pair: Pair&lt;List&lt;String&gt;, CommonTree&gt; [0..1]</text>
<polygon fill="black" stroke="black" points="60,-49 60,-49 350,-49 350,-49 60,-49"/>
<polygon fill="none" stroke="black" points="60,-24 60,-74 350,-74 350,-24 60,-24"/>
</g>
<!-- Mixins430638766&#45;&gt;Mixin430638766 -->
<g id="edge3" class="edge">
<title>Mixins430638766&#45;&gt;Mixin430638766</title>
<path fill="none" stroke="black" d="M202.96,-203.6C203.49,-163.63 204.13,-115.76 204.55,-84.2"/>
<polygon fill="black" stroke="black" points="208.05,-84.21 204.68,-74.16 201.05,-84.12 208.05,-84.21"/>
<text text-anchor="middle" x="219.16" y="-113" font-family="Times New Roman,serif" font-size="14.00">mxn</text>
<text text-anchor="middle" x="219.16" y="-96.2" font-family="Times New Roman,serif" font-size="14.00">[0..*]</text>
</g>
<!-- Symbol430638766 -->
<g id="node7" class="node">
<title>Symbol430638766</title>
<polygon fill="#ffffff" stroke="transparent" points="618,-74 406,-74 406,-24 618,-24 618,-74"/>
<text text-anchor="start" x="411" y="-56.4" font-family="Times New Roman,serif" font-size="14.00">(C)Symbol</text>
<text text-anchor="start" x="411" y="-32.4" font-family="Times New Roman,serif" font-size="14.00">&#45; &#160;&#160;_pair: Pair&lt;Types, Object&gt; [0..1]</text>
<polygon fill="black" stroke="black" points="406,-49 406,-49 618,-49 618,-49 406,-49"/>
<polygon fill="none" stroke="black" points="406,-24 406,-74 618,-74 618,-24 406,-24"/>
</g>
<!-- SymbolTable430638766&#45;&gt;Symbol430638766 -->
<g id="edge4" class="edge">
<title>SymbolTable430638766&#45;&gt;Symbol430638766</title>
<path fill="none" stroke="black" d="M512,-143.39C512,-121.62 512,-100.84 512,-84.43"/>
<polygon fill="black" stroke="black" points="515.5,-84.32 512,-74.32 508.5,-84.32 515.5,-84.32"/>
<text text-anchor="middle" x="527.16" y="-113" font-family="Times New Roman,serif" font-size="14.00">sym</text>
<text text-anchor="middle" x="527.16" y="-96.2" font-family="Times New Roman,serif" font-size="14.00">[0..*]</text>
</g>
</g>
</svg>
