<?xml version="1.0" encoding="UTF-8" standalone="no"?>
<!DOCTYPE svg PUBLIC "-//W3C//DTD SVG 1.1//EN"
 "http://www.w3.org/Graphics/SVG/1.1/DTD/svg11.dtd">
<!-- Generated by graphviz version 2.44.1 (20200629.0846)
 -->
<!-- Title: g Pages: 1 -->
<svg width="476pt" height="1170pt"
 viewBox="0.00 0.00 476.00 1170.40" xmlns="http://www.w3.org/2000/svg" xmlns:xlink="http://www.w3.org/1999/xlink">
<g id="graph0" class="graph" transform="scale(1 1) rotate(0) translate(4 1166.4)">
<title>g</title>
<polygon fill="white" stroke="transparent" points="-4,4 -4,-1166.4 472,-1166.4 472,4 -4,4"/>
<g id="clust1" class="cluster">
<title>cluster_111433013</title>
<polygon fill="#ececec" stroke="black" points="8,-8 8,-1154.4 460,-1154.4 460,-8 8,-8"/>
<text text-anchor="middle" x="31.95" y="-1137.8" font-family="Times New Roman,serif" font-size="14.00">unibg</text>
</g>
<!-- ParserHandler699872683 -->
<g id="node1" class="node">
<title>ParserHandler699872683</title>
<polygon fill="#ffffff" stroke="transparent" points="379,-138 89,-138 89,-16 379,-16 379,-138"/>
<text text-anchor="start" x="94" y="-120.4" font-family="Times New Roman,serif" font-size="14.00">(C)ParserHandler</text>
<text text-anchor="start" x="94" y="-96.4" font-family="Times New Roman,serif" font-size="14.00"># &#160;&#160;errorList: List&lt;String&gt; [0..*]</text>
<text text-anchor="start" x="94" y="-72.4" font-family="Times New Roman,serif" font-size="14.00"># &#160;&#160;input: TokenStream [0..1]</text>
<text text-anchor="start" x="94" y="-48.4" font-family="Times New Roman,serif" font-size="14.00">+ checkNextIsSpace(): boolean</text>
<text text-anchor="start" x="93.58" y="-24.4" font-family="Times New Roman,serif" font-size="14.00">+ handleError(tk: Token, hdr: String, msg: String)</text>
<polygon fill="black" stroke="black" points="89,-113 89,-113 379,-113 379,-113 89,-113"/>
<polygon fill="black" stroke="black" points="89,-65 89,-65 379,-65 379,-65 89,-65"/>
<polygon fill="none" stroke="black" points="89,-16 89,-138 379,-138 379,-16 89,-16"/>
</g>
<!-- YassParser699872683 -->
<g id="node2" class="node">
<title>YassParser699872683</title>
<polygon fill="#ffffff" stroke="transparent" points="451.5,-1121.6 16.5,-1121.6 16.5,-207.6 451.5,-207.6 451.5,-1121.6"/>
<text text-anchor="start" x="22" y="-1104" font-family="Times New Roman,serif" font-size="14.00">(C)YassParser</text>
<text text-anchor="start" x="22" y="-1080" font-family="Times New Roman,serif" font-size="14.00"># &#160;&#160;adaptor: TreeAdaptor [0..1]</text>
<text text-anchor="start" x="22" y="-1056" font-family="Times New Roman,serif" font-size="14.00"># &#160;&#160;dfa15: DFA15 [0..1]</text>
<text text-anchor="start" x="22" y="-1032" font-family="Times New Roman,serif" font-size="14.00"># &#160;&#160;ph: ParserHandler [0..1]</text>
<text text-anchor="start" x="22" y="-1008" font-family="Times New Roman,serif" font-size="14.00">+ args(): args_return</text>
<text text-anchor="start" x="22" y="-984" font-family="Times New Roman,serif" font-size="14.00">+ attrib(): attrib_return</text>
<text text-anchor="start" x="22" y="-960" font-family="Times New Roman,serif" font-size="14.00">+ attribRelate(): attribRelate_return</text>
<text text-anchor="start" x="22" y="-936" font-family="Times New Roman,serif" font-size="14.00">+ block(): block_return</text>
<text text-anchor="start" x="22" y="-912" font-family="Times New Roman,serif" font-size="14.00">+ dict(): dict_return</text>
<text text-anchor="start" x="22" y="-888" font-family="Times New Roman,serif" font-size="14.00">+ dictItem(): dictItem_return</text>
<text text-anchor="start" x="21.58" y="-864" font-family="Times New Roman,serif" font-size="14.00">+ displayRecognitionError(tokenNames: String[], e: RecognitionException)</text>
<text text-anchor="start" x="22" y="-840" font-family="Times New Roman,serif" font-size="14.00">+ element(): element_return</text>
<text text-anchor="start" x="22" y="-816" font-family="Times New Roman,serif" font-size="14.00">+ expr(): expr_return</text>
<text text-anchor="start" x="22" y="-792" font-family="Times New Roman,serif" font-size="14.00">+ foreach(): foreach_return</text>
<text text-anchor="start" x="22" y="-768" font-family="Times New Roman,serif" font-size="14.00">+ foreachBody(): foreachBody_return</text>
<text text-anchor="start" x="22" y="-744" font-family="Times New Roman,serif" font-size="14.00">+ identifier(): identifier_return</text>
<text text-anchor="start" x="22" y="-720" font-family="Times New Roman,serif" font-size="14.00"># initHandler()</text>
<text text-anchor="start" x="22" y="-696" font-family="Times New Roman,serif" font-size="14.00">+ list(): list_return</text>
<text text-anchor="start" x="22" y="-672" font-family="Times New Roman,serif" font-size="14.00">+ measurement(): measurement_return</text>
<text text-anchor="start" x="22" y="-648" font-family="Times New Roman,serif" font-size="14.00">+ mixin(): mixin_return</text>
<text text-anchor="start" x="22" y="-624" font-family="Times New Roman,serif" font-size="14.00">+ mixinBody(): mixinBody_return</text>
<text text-anchor="start" x="22" y="-600" font-family="Times New Roman,serif" font-size="14.00">+ mixinCall(): mixinCall_return</text>
<text text-anchor="start" x="22" y="-576" font-family="Times New Roman,serif" font-size="14.00">+ nextElement(): nextElement_return</text>
<text text-anchor="start" x="22" y="-552" font-family="Times New Roman,serif" font-size="14.00">+ property(): property_return</text>
<text text-anchor="start" x="22" y="-528" font-family="Times New Roman,serif" font-size="14.00">+ pseudo(): pseudo_return</text>
<text text-anchor="start" x="22" y="-504" font-family="Times New Roman,serif" font-size="14.00">+ ruleset(): ruleset_return</text>
<text text-anchor="start" x="22" y="-480" font-family="Times New Roman,serif" font-size="14.00">+ selector(): selector_return</text>
<text text-anchor="start" x="22" y="-456" font-family="Times New Roman,serif" font-size="14.00">+ selectorPrefix(): selectorPrefix_return</text>
<text text-anchor="start" x="22" y="-432" font-family="Times New Roman,serif" font-size="14.00">+ selectors(): selectors_return</text>
<text text-anchor="start" x="22" y="-408" font-family="Times New Roman,serif" font-size="14.00">+ statement(): statement_return</text>
<text text-anchor="start" x="22" y="-384" font-family="Times New Roman,serif" font-size="14.00">+ stylesheet(): stylesheet_return</text>
<text text-anchor="start" x="22" y="-360" font-family="Times New Roman,serif" font-size="14.00">+ synpred27_YassParser(): boolean</text>
<text text-anchor="start" x="22" y="-336" font-family="Times New Roman,serif" font-size="14.00">+ synpred27_YassParser_fragment()</text>
<text text-anchor="start" x="22" y="-312" font-family="Times New Roman,serif" font-size="14.00">+ terminator(): terminator_return</text>
<text text-anchor="start" x="22" y="-288" font-family="Times New Roman,serif" font-size="14.00">+ variableAtom(): variableAtom_return</text>
<text text-anchor="start" x="22" y="-264" font-family="Times New Roman,serif" font-size="14.00">+ variableDeclaration(): variableDeclaration_return</text>
<text text-anchor="start" x="22" y="-240" font-family="Times New Roman,serif" font-size="14.00">+ variableInterpolation(): variableInterpolation_return</text>
<text text-anchor="start" x="22" y="-216" font-family="Times New Roman,serif" font-size="14.00">+ variableValue(): variableValue_return</text>
<polygon fill="black" stroke="black" points="17,-1096.6 17,-1096.6 452,-1096.6 452,-1096.6 17,-1096.6"/>
<polygon fill="black" stroke="black" points="17,-1024.6 17,-1024.6 452,-1024.6 452,-1024.6 17,-1024.6"/>
<polygon fill="none" stroke="black" points="16.5,-207.6 16.5,-1121.6 451.5,-1121.6 451.5,-207.6 16.5,-207.6"/>
</g>
<!-- YassParser699872683&#45;&gt;ParserHandler699872683 -->
<g id="edge1" class="edge">
<title>YassParser699872683&#45;&gt;ParserHandler699872683</title>
<path fill="none" stroke="black" d="M234,-207.24C234,-185.7 234,-165.91 234,-148.62"/>
<polygon fill="black" stroke="black" points="237.5,-148.18 234,-138.18 230.5,-148.18 237.5,-148.18"/>
<text text-anchor="middle" x="249.16" y="-177" font-family="Times New Roman,serif" font-size="14.00">ph</text>
<text text-anchor="middle" x="249.16" y="-160.2" font-family="Times New Roman,serif" font-size="14.00">[0..1]</text>
</g>
</g>
</svg>
