<?xml version="1.0" encoding="UTF-8" standalone="no"?>
<!DOCTYPE svg PUBLIC "-//W3C//DTD SVG 1.1//EN"
 "http://www.w3.org/Graphics/SVG/1.1/DTD/svg11.dtd">
<!-- Generated by graphviz version 2.44.1 (20200629.0846)
 -->
<!-- Title: g Pages: 1 -->
<svg width="1429pt" height="2575pt"
 viewBox="0.00 0.00 1429.00 2575.20" xmlns="http://www.w3.org/2000/svg" xmlns:xlink="http://www.w3.org/1999/xlink">
<g id="graph0" class="graph" transform="scale(1 1) rotate(0) translate(4 2571.2)">
<title>g</title>
<polygon fill="white" stroke="transparent" points="-4,4 -4,-2571.2 1425,-2571.2 1425,4 -4,4"/>
<g id="clust1" class="cluster">
<title>cluster_111433013</title>
<polygon fill="#ececec" stroke="black" points="8,-8 8,-2559.2 1413,-2559.2 1413,-8 8,-8"/>
<text text-anchor="middle" x="31.95" y="-2542.6" font-family="Times New Roman,serif" font-size="14.00">unibg</text>
</g>
<g id="clust2" class="cluster">
<title>cluster_1087734817</title>
<polygon fill="#d8d8d8" stroke="black" points="990,-830 990,-968.8 1405,-968.8 1405,-830 990,-830"/>
<text text-anchor="middle" x="1024.43" y="-952.2" font-family="Times New Roman,serif" font-size="14.00">YassTree</text>
</g>
<g id="clust4" class="cluster">
<title>cluster_908121784</title>
<polygon fill="#d8d8d8" stroke="black" points="422,-16 422,-442.4 1041,-442.4 1041,-16 422,-16"/>
<text text-anchor="middle" x="442.06" y="-425.8" font-family="Times New Roman,serif" font-size="14.00">utils</text>
</g>
<g id="clust3" class="cluster">
<title>cluster_1765918688</title>
<polygon fill="#d8d8d8" stroke="black" points="316,-861 316,-937.8 402,-937.8 402,-861 316,-861"/>
<text text-anchor="middle" x="355.09" y="-921.2" font-family="Times New Roman,serif" font-size="14.00">YassParser</text>
</g>
<!-- Handler699872683 -->
<g id="node1" class="node">
<title>Handler699872683</title>
<polygon fill="#ffffff" stroke="transparent" points="980,-1272 412,-1272 412,-502 980,-502 980,-1272"/>
<text text-anchor="start" x="417" y="-1254.4" font-family="Times New Roman,serif" font-size="14.00">(C)Handler</text>
<text text-anchor="start" x="417" y="-1230.4" font-family="Times New Roman,serif" font-size="14.00">&#45; &#160;&#160;currentSelector: StringBuilder [0..1]</text>
<text text-anchor="start" x="417" y="-1206.4" font-family="Times New Roman,serif" font-size="14.00">&#45; &#160;&#160;errorList: List&lt;String&gt; [0..*]</text>
<text text-anchor="start" x="417" y="-1182.4" font-family="Times New Roman,serif" font-size="14.00">&#45; &#160;&#160;input: TreeNodeStream [0..1]</text>
<text text-anchor="start" x="417" y="-1158.4" font-family="Times New Roman,serif" font-size="14.00">&#45; &#160;&#160;level: int [1]</text>
<text text-anchor="start" x="417" y="-1134.4" font-family="Times New Roman,serif" font-size="14.00">&#45; &#160;&#160;mixins: Mixins [0..1]</text>
<text text-anchor="start" x="417" y="-1110.4" font-family="Times New Roman,serif" font-size="14.00">&#45; &#160;&#160;propertiesSb: List&lt;StringBuilder&gt; [0..*]</text>
<text text-anchor="start" x="417" y="-1086.4" font-family="Times New Roman,serif" font-size="14.00">&#45; &#160;&#160;sb: List&lt;StringBuilder&gt; [0..*]</text>
<text text-anchor="start" x="417" y="-1062.4" font-family="Times New Roman,serif" font-size="14.00">&#45; &#160;&#160;symbolTable: SymbolTable [0..1]</text>
<text text-anchor="start" x="417" y="-1038.4" font-family="Times New Roman,serif" font-size="14.00">+ checkMixinReference(identifier: CommonTree): boolean</text>
<text text-anchor="start" x="417" y="-1014.4" font-family="Times New Roman,serif" font-size="14.00">&#45; checkVarReference(identifier: CommonTree): boolean</text>
<text text-anchor="start" x="417" y="-990.4" font-family="Times New Roman,serif" font-size="14.00">&#45; checkVarReference(identifier: CommonTree, type: Types): boolean</text>
<text text-anchor="start" x="417" y="-966.4" font-family="Times New Roman,serif" font-size="14.00">+ declareMixin(identifier: CommonTree, mixin: Mixin)</text>
<text text-anchor="start" x="417" y="-942.4" font-family="Times New Roman,serif" font-size="14.00">+ declareVar(identifier: CommonTree, symbol: Symbol)</text>
<text text-anchor="start" x="417" y="-918.4" font-family="Times New Roman,serif" font-size="14.00">&#45; declareVirtualVar(name: String, symbol: Symbol)</text>
<text text-anchor="start" x="417" y="-894.4" font-family="Times New Roman,serif" font-size="14.00">+ decrementLevel()</text>
<text text-anchor="start" x="416.99" y="-870.4" font-family="Times New Roman,serif" font-size="14.00">+ foreach(element: CommonTree, index: CommonTree, value: CommonTree, body: CommonTree)</text>
<text text-anchor="start" x="417" y="-846.4" font-family="Times New Roman,serif" font-size="14.00">+ foreach(element: CommonTree, body: CommonTree)</text>
<text text-anchor="start" x="417" y="-822.4" font-family="Times New Roman,serif" font-size="14.00">&#45; foreach(element: CommonTree, index: String, value: String, body: CommonTree)</text>
<text text-anchor="start" x="417" y="-798.4" font-family="Times New Roman,serif" font-size="14.00">+ getSpecificValue(element: CommonTree, index: CommonTree): String</text>
<text text-anchor="start" x="417" y="-774.4" font-family="Times New Roman,serif" font-size="14.00">&#45; getVar(identifier: CommonTree, checkType: boolean): Symbol</text>
<text text-anchor="start" x="417" y="-750.4" font-family="Times New Roman,serif" font-size="14.00">+ getVarValue(identifier: CommonTree): Object</text>
<text text-anchor="start" x="417" y="-726.4" font-family="Times New Roman,serif" font-size="14.00">&#45; getVarValue(identifier: CommonTree, type: Types): Object</text>
<text text-anchor="start" x="417" y="-702.4" font-family="Times New Roman,serif" font-size="14.00">&#45; handleError(error: Errors, tk: CommonTree)</text>
<text text-anchor="start" x="417" y="-678.4" font-family="Times New Roman,serif" font-size="14.00">+ incrementLevel()</text>
<text text-anchor="start" x="417" y="-654.4" font-family="Times New Roman,serif" font-size="14.00">+ mixinCall(identifier: CommonTree, arguments: List&lt;Object&gt;)</text>
<text text-anchor="start" x="417" y="-630.4" font-family="Times New Roman,serif" font-size="14.00">+ normalizeWhiteSpace(input: StringBuilder): StringBuilder</text>
<text text-anchor="start" x="417" y="-606.4" font-family="Times New Roman,serif" font-size="14.00">+ popSb()</text>
<text text-anchor="start" x="417" y="-582.4" font-family="Times New Roman,serif" font-size="14.00">+ pushSb()</text>
<text text-anchor="start" x="417" y="-558.4" font-family="Times New Roman,serif" font-size="14.00">+ resetCurrentSelector(length: int)</text>
<text text-anchor="start" x="417" y="-534.4" font-family="Times New Roman,serif" font-size="14.00">+ trim(sb: StringBuilder, character: char): StringBuilder</text>
<text text-anchor="start" x="417" y="-510.4" font-family="Times New Roman,serif" font-size="14.00">+ writeLine(string: String)</text>
<polygon fill="black" stroke="black" points="412,-1247 412,-1247 980,-1247 980,-1247 412,-1247"/>
<polygon fill="black" stroke="black" points="412,-1055 412,-1055 980,-1055 980,-1055 412,-1055"/>
<polygon fill="none" stroke="black" points="412,-502 412,-1272 980,-1272 980,-502 412,-502"/>
</g>
<!-- Mixins430638766 -->
<g id="node10" class="node">
<title>Mixins430638766</title>
<polygon fill="#ffffff" stroke="transparent" points="713.5,-349.6 430.5,-349.6 430.5,-203.6 713.5,-203.6 713.5,-349.6"/>
<text text-anchor="start" x="436" y="-332" font-family="Times New Roman,serif" font-size="14.00">(C)Mixins</text>
<text text-anchor="start" x="436" y="-308" font-family="Times New Roman,serif" font-size="14.00">&#45; &#160;&#160;mxn: Map&lt;String, Mixin&gt; [0..*]</text>
<text text-anchor="start" x="436" y="-284" font-family="Times New Roman,serif" font-size="14.00">+ assign(name: String, value: Mixin): Object</text>
<text text-anchor="start" x="436" y="-260" font-family="Times New Roman,serif" font-size="14.00">+ defined(name: String): boolean</text>
<text text-anchor="start" x="436" y="-236" font-family="Times New Roman,serif" font-size="14.00">+ resolve(key: String): Mixin</text>
<text text-anchor="start" x="435.96" y="-212" font-family="Times New Roman,serif" font-size="14.00">+ resolve(key: String, defaultObj: Mixin): Mixin</text>
<polygon fill="black" stroke="black" points="431,-324.6 431,-324.6 714,-324.6 714,-324.6 431,-324.6"/>
<polygon fill="black" stroke="black" points="431,-300.6 431,-300.6 714,-300.6 714,-300.6 431,-300.6"/>
<polygon fill="none" stroke="black" points="430.5,-203.6 430.5,-349.6 713.5,-349.6 713.5,-203.6 430.5,-203.6"/>
</g>
<!-- Handler699872683&#45;&gt;Mixins430638766 -->
<g id="edge1" class="edge">
<title>Handler699872683&#45;&gt;Mixins430638766</title>
<path fill="none" stroke="black" d="M617.73,-501.99C606.87,-448.7 596.73,-398.93 588.77,-359.87"/>
<polygon fill="black" stroke="black" points="592.11,-358.76 586.69,-349.66 585.26,-360.16 592.11,-358.76"/>
<text text-anchor="middle" x="632.06" y="-471.4" font-family="Times New Roman,serif" font-size="14.00">mixins</text>
<text text-anchor="middle" x="632.06" y="-454.6" font-family="Times New Roman,serif" font-size="14.00">[0..1]</text>
</g>
<!-- SymbolTable430638766 -->
<g id="node12" class="node">
<title>SymbolTable430638766</title>
<polygon fill="#ffffff" stroke="transparent" points="1032.5,-409.6 731.5,-409.6 731.5,-143.6 1032.5,-143.6 1032.5,-409.6"/>
<text text-anchor="start" x="737" y="-392" font-family="Times New Roman,serif" font-size="14.00">(C)SymbolTable</text>
<text text-anchor="start" x="737" y="-368" font-family="Times New Roman,serif" font-size="14.00">&#45; &#160;&#160;parent: SymbolTable [0..1]</text>
<text text-anchor="start" x="737" y="-344" font-family="Times New Roman,serif" font-size="14.00">&#45; &#160;&#160;sym: Map&lt;String, Symbol&gt; [0..*]</text>
<text text-anchor="start" x="737" y="-320" font-family="Times New Roman,serif" font-size="14.00">+ assign(name: String, value: Symbol): Object</text>
<text text-anchor="start" x="737" y="-296" font-family="Times New Roman,serif" font-size="14.00">+ createScope(): SymbolTable</text>
<text text-anchor="start" x="737" y="-272" font-family="Times New Roman,serif" font-size="14.00">+ defined(name: String): boolean</text>
<text text-anchor="start" x="737" y="-248" font-family="Times New Roman,serif" font-size="14.00">+ definedLocally(name: String): boolean</text>
<text text-anchor="start" x="737" y="-224" font-family="Times New Roman,serif" font-size="14.00">+ resolve(key: String): Symbol</text>
<text text-anchor="start" x="736.63" y="-200" font-family="Times New Roman,serif" font-size="14.00">+ resolve(key: String, defaultObj: Symbol): Symbol</text>
<text text-anchor="start" x="737" y="-176" font-family="Times New Roman,serif" font-size="14.00">+ undefine(name: String): Object</text>
<text text-anchor="start" x="737" y="-152" font-family="Times New Roman,serif" font-size="14.00">+ undefineLocally(name: String): Object</text>
<polygon fill="black" stroke="black" points="732,-384.6 732,-384.6 1033,-384.6 1033,-384.6 732,-384.6"/>
<polygon fill="black" stroke="black" points="732,-336.6 732,-336.6 1033,-336.6 1033,-336.6 732,-336.6"/>
<polygon fill="none" stroke="black" points="731.5,-143.6 731.5,-409.6 1032.5,-409.6 1032.5,-143.6 731.5,-143.6"/>
</g>
<!-- Handler699872683&#45;&gt;SymbolTable430638766 -->
<g id="edge2" class="edge">
<title>Handler699872683&#45;&gt;SymbolTable430638766</title>
<path fill="none" stroke="black" d="M813.4,-501.99C822.23,-473.1 830.75,-445.25 838.6,-419.57"/>
<polygon fill="black" stroke="black" points="841.99,-420.43 841.57,-409.84 835.3,-418.38 841.99,-420.43"/>
<text text-anchor="middle" x="863.55" y="-471.4" font-family="Times New Roman,serif" font-size="14.00">symbolTable</text>
<text text-anchor="middle" x="863.55" y="-454.6" font-family="Times New Roman,serif" font-size="14.00">[0..1]</text>
</g>
<!-- ParserHandler699872683 -->
<g id="node2" class="node">
<title>ParserHandler699872683</title>
<polygon fill="#ffffff" stroke="transparent" points="306,-948 16,-948 16,-826 306,-826 306,-948"/>
<text text-anchor="start" x="21" y="-930.4" font-family="Times New Roman,serif" font-size="14.00">(C)ParserHandler</text>
<text text-anchor="start" x="21" y="-906.4" font-family="Times New Roman,serif" font-size="14.00"># &#160;&#160;errorList: List&lt;String&gt; [0..*]</text>
<text text-anchor="start" x="21" y="-882.4" font-family="Times New Roman,serif" font-size="14.00"># &#160;&#160;input: TokenStream [0..1]</text>
<text text-anchor="start" x="21" y="-858.4" font-family="Times New Roman,serif" font-size="14.00">+ checkNextIsSpace(): boolean</text>
<text text-anchor="start" x="20.58" y="-834.4" font-family="Times New Roman,serif" font-size="14.00">+ handleError(tk: Token, hdr: String, msg: String)</text>
<polygon fill="black" stroke="black" points="16,-923 16,-923 306,-923 306,-923 16,-923"/>
<polygon fill="black" stroke="black" points="16,-875 16,-875 306,-875 306,-875 16,-875"/>
<polygon fill="none" stroke="black" points="16,-826 16,-948 306,-948 306,-826 16,-826"/>
</g>
<!-- Processor699872683 -->
<g id="node3" class="node">
<title>Processor699872683</title>
<polygon fill="#ffffff" stroke="transparent" points="746,-2526.4 410,-2526.4 410,-2308.4 746,-2308.4 746,-2526.4"/>
<text text-anchor="start" x="415" y="-2508.8" font-family="Times New Roman,serif" font-size="14.00">(C)Processor</text>
<text text-anchor="start" x="415" y="-2484.8" font-family="Times New Roman,serif" font-size="14.00">&#45; &#160;&#160;input: String [0..1]</text>
<text text-anchor="start" x="415" y="-2460.8" font-family="Times New Roman,serif" font-size="14.00">&#45; &#160;&#160;output: String [0..1]</text>
<text text-anchor="start" x="415" y="-2436.8" font-family="Times New Roman,serif" font-size="14.00">+ call(): Void</text>
<text text-anchor="start" x="415" y="-2412.8" font-family="Times New Roman,serif" font-size="14.00">&#45; getAST(reader: Reader): CommonTree</text>
<text text-anchor="start" x="414.53" y="-2388.8" font-family="Times New Roman,serif" font-size="14.00">&#45; getTokenStream(reader: Reader): CommonTokenStream</text>
<text text-anchor="start" x="415" y="-2364.8" font-family="Times New Roman,serif" font-size="14.00">+ main(args: String[])</text>
<text text-anchor="start" x="415" y="-2340.8" font-family="Times New Roman,serif" font-size="14.00">+ processAST(ast: CommonTree)</text>
<text text-anchor="start" x="415" y="-2316.8" font-family="Times New Roman,serif" font-size="14.00">&#45; processFile()</text>
<polygon fill="black" stroke="black" points="410,-2501.4 410,-2501.4 746,-2501.4 746,-2501.4 410,-2501.4"/>
<polygon fill="black" stroke="black" points="410,-2453.4 410,-2453.4 746,-2453.4 746,-2453.4 410,-2453.4"/>
<polygon fill="none" stroke="black" points="410,-2308.4 410,-2526.4 746,-2526.4 746,-2308.4 410,-2308.4"/>
</g>
<!-- YassParser699872683 -->
<g id="node4" class="node">
<title>YassParser699872683</title>
<polygon fill="#ffffff" stroke="transparent" points="576.5,-2255.6 141.5,-2255.6 141.5,-1341.6 576.5,-1341.6 576.5,-2255.6"/>
<text text-anchor="start" x="147" y="-2238" font-family="Times New Roman,serif" font-size="14.00">(C)YassParser</text>
<text text-anchor="start" x="147" y="-2214" font-family="Times New Roman,serif" font-size="14.00"># &#160;&#160;adaptor: TreeAdaptor [0..1]</text>
<text text-anchor="start" x="147" y="-2190" font-family="Times New Roman,serif" font-size="14.00"># &#160;&#160;dfa15: DFA15 [0..1]</text>
<text text-anchor="start" x="147" y="-2166" font-family="Times New Roman,serif" font-size="14.00"># &#160;&#160;ph: ParserHandler [0..1]</text>
<text text-anchor="start" x="147" y="-2142" font-family="Times New Roman,serif" font-size="14.00">+ args(): args_return</text>
<text text-anchor="start" x="147" y="-2118" font-family="Times New Roman,serif" font-size="14.00">+ attrib(): attrib_return</text>
<text text-anchor="start" x="147" y="-2094" font-family="Times New Roman,serif" font-size="14.00">+ attribRelate(): attribRelate_return</text>
<text text-anchor="start" x="147" y="-2070" font-family="Times New Roman,serif" font-size="14.00">+ block(): block_return</text>
<text text-anchor="start" x="147" y="-2046" font-family="Times New Roman,serif" font-size="14.00">+ dict(): dict_return</text>
<text text-anchor="start" x="147" y="-2022" font-family="Times New Roman,serif" font-size="14.00">+ dictItem(): dictItem_return</text>
<text text-anchor="start" x="146.58" y="-1998" font-family="Times New Roman,serif" font-size="14.00">+ displayRecognitionError(tokenNames: String[], e: RecognitionException)</text>
<text text-anchor="start" x="147" y="-1974" font-family="Times New Roman,serif" font-size="14.00">+ element(): element_return</text>
<text text-anchor="start" x="147" y="-1950" font-family="Times New Roman,serif" font-size="14.00">+ expr(): expr_return</text>
<text text-anchor="start" x="147" y="-1926" font-family="Times New Roman,serif" font-size="14.00">+ foreach(): foreach_return</text>
<text text-anchor="start" x="147" y="-1902" font-family="Times New Roman,serif" font-size="14.00">+ foreachBody(): foreachBody_return</text>
<text text-anchor="start" x="147" y="-1878" font-family="Times New Roman,serif" font-size="14.00">+ identifier(): identifier_return</text>
<text text-anchor="start" x="147" y="-1854" font-family="Times New Roman,serif" font-size="14.00"># initHandler()</text>
<text text-anchor="start" x="147" y="-1830" font-family="Times New Roman,serif" font-size="14.00">+ list(): list_return</text>
<text text-anchor="start" x="147" y="-1806" font-family="Times New Roman,serif" font-size="14.00">+ measurement(): measurement_return</text>
<text text-anchor="start" x="147" y="-1782" font-family="Times New Roman,serif" font-size="14.00">+ mixin(): mixin_return</text>
<text text-anchor="start" x="147" y="-1758" font-family="Times New Roman,serif" font-size="14.00">+ mixinBody(): mixinBody_return</text>
<text text-anchor="start" x="147" y="-1734" font-family="Times New Roman,serif" font-size="14.00">+ mixinCall(): mixinCall_return</text>
<text text-anchor="start" x="147" y="-1710" font-family="Times New Roman,serif" font-size="14.00">+ nextElement(): nextElement_return</text>
<text text-anchor="start" x="147" y="-1686" font-family="Times New Roman,serif" font-size="14.00">+ property(): property_return</text>
<text text-anchor="start" x="147" y="-1662" font-family="Times New Roman,serif" font-size="14.00">+ pseudo(): pseudo_return</text>
<text text-anchor="start" x="147" y="-1638" font-family="Times New Roman,serif" font-size="14.00">+ ruleset(): ruleset_return</text>
<text text-anchor="start" x="147" y="-1614" font-family="Times New Roman,serif" font-size="14.00">+ selector(): selector_return</text>
<text text-anchor="start" x="147" y="-1590" font-family="Times New Roman,serif" font-size="14.00">+ selectorPrefix(): selectorPrefix_return</text>
<text text-anchor="start" x="147" y="-1566" font-family="Times New Roman,serif" font-size="14.00">+ selectors(): selectors_return</text>
<text text-anchor="start" x="147" y="-1542" font-family="Times New Roman,serif" font-size="14.00">+ statement(): statement_return</text>
<text text-anchor="start" x="147" y="-1518" font-family="Times New Roman,serif" font-size="14.00">+ stylesheet(): stylesheet_return</text>
<text text-anchor="start" x="147" y="-1494" font-family="Times New Roman,serif" font-size="14.00">+ synpred27_YassParser(): boolean</text>
<text text-anchor="start" x="147" y="-1470" font-family="Times New Roman,serif" font-size="14.00">+ synpred27_YassParser_fragment()</text>
<text text-anchor="start" x="147" y="-1446" font-family="Times New Roman,serif" font-size="14.00">+ terminator(): terminator_return</text>
<text text-anchor="start" x="147" y="-1422" font-family="Times New Roman,serif" font-size="14.00">+ variableAtom(): variableAtom_return</text>
<text text-anchor="start" x="147" y="-1398" font-family="Times New Roman,serif" font-size="14.00">+ variableDeclaration(): variableDeclaration_return</text>
<text text-anchor="start" x="147" y="-1374" font-family="Times New Roman,serif" font-size="14.00">+ variableInterpolation(): variableInterpolation_return</text>
<text text-anchor="start" x="147" y="-1350" font-family="Times New Roman,serif" font-size="14.00">+ variableValue(): variableValue_return</text>
<polygon fill="black" stroke="black" points="142,-2230.6 142,-2230.6 577,-2230.6 577,-2230.6 142,-2230.6"/>
<polygon fill="black" stroke="black" points="142,-2158.6 142,-2158.6 577,-2158.6 577,-2158.6 142,-2158.6"/>
<polygon fill="none" stroke="black" points="141.5,-1341.6 141.5,-2255.6 576.5,-2255.6 576.5,-1341.6 141.5,-1341.6"/>
</g>
<!-- Processor699872683&#45;&gt;YassParser699872683 -->
<g id="edge4" class="edge">
<title>Processor699872683&#45;&gt;YassParser699872683</title>
<path fill="none" stroke="black" d="M539.6,-2308.26C534.8,-2294.74 529.68,-2280.31 524.32,-2265.2"/>
<polygon fill="black" stroke="black" points="527.59,-2263.96 520.94,-2255.71 520.99,-2266.3 527.59,-2263.96"/>
<text text-anchor="middle" x="598.47" y="-2277.8" font-family="Times New Roman,serif" font-size="14.00">getAST() &#45;&gt; stylesheet()</text>
</g>
<!-- YassTree699872683 -->
<g id="node5" class="node">
<title>YassTree699872683</title>
<polygon fill="#ffffff" stroke="transparent" points="1023,-2207.6 735,-2207.6 735,-1389.6 1023,-1389.6 1023,-2207.6"/>
<text text-anchor="start" x="740" y="-2190" font-family="Times New Roman,serif" font-size="14.00">(C)YassTree</text>
<text text-anchor="start" x="740" y="-2166" font-family="Times New Roman,serif" font-size="14.00"># &#160;&#160;args_stack: Stack&lt;args_scope&gt; [0..*]</text>
<text text-anchor="start" x="740" y="-2142" font-family="Times New Roman,serif" font-size="14.00"># &#160;&#160;h: Handler [0..1]</text>
<text text-anchor="start" x="739.9" y="-2118" font-family="Times New Roman,serif" font-size="14.00"># &#160;&#160;selectors_stack: Stack&lt;selectors_scope&gt; [0..*]</text>
<text text-anchor="start" x="740" y="-2094" font-family="Times New Roman,serif" font-size="14.00">+ args(): String</text>
<text text-anchor="start" x="740" y="-2070" font-family="Times New Roman,serif" font-size="14.00">+ attrib()</text>
<text text-anchor="start" x="740" y="-2046" font-family="Times New Roman,serif" font-size="14.00">+ attribRelate()</text>
<text text-anchor="start" x="740" y="-2022" font-family="Times New Roman,serif" font-size="14.00">+ block()</text>
<text text-anchor="start" x="740" y="-1998" font-family="Times New Roman,serif" font-size="14.00">+ dict(): Dict</text>
<text text-anchor="start" x="740" y="-1974" font-family="Times New Roman,serif" font-size="14.00">+ dictItem(dictionary: Dict)</text>
<text text-anchor="start" x="740" y="-1950" font-family="Times New Roman,serif" font-size="14.00">+ element()</text>
<text text-anchor="start" x="740" y="-1926" font-family="Times New Roman,serif" font-size="14.00">+ expr()</text>
<text text-anchor="start" x="740" y="-1902" font-family="Times New Roman,serif" font-size="14.00">+ foreach()</text>
<text text-anchor="start" x="740" y="-1878" font-family="Times New Roman,serif" font-size="14.00">+ foreachBody()</text>
<text text-anchor="start" x="740" y="-1854" font-family="Times New Roman,serif" font-size="14.00">+ identifier(): String</text>
<text text-anchor="start" x="740" y="-1830" font-family="Times New Roman,serif" font-size="14.00"># init()</text>
<text text-anchor="start" x="740" y="-1806" font-family="Times New Roman,serif" font-size="14.00">+ list(): List</text>
<text text-anchor="start" x="740" y="-1782" font-family="Times New Roman,serif" font-size="14.00">+ measurement(): String</text>
<text text-anchor="start" x="740" y="-1758" font-family="Times New Roman,serif" font-size="14.00">+ mixin(): Mixin</text>
<text text-anchor="start" x="740" y="-1734" font-family="Times New Roman,serif" font-size="14.00">+ mixinBody()</text>
<text text-anchor="start" x="740" y="-1710" font-family="Times New Roman,serif" font-size="14.00">+ mixinCall()</text>
<text text-anchor="start" x="740" y="-1686" font-family="Times New Roman,serif" font-size="14.00">+ nextElement()</text>
<text text-anchor="start" x="740" y="-1662" font-family="Times New Roman,serif" font-size="14.00">+ property()</text>
<text text-anchor="start" x="740" y="-1638" font-family="Times New Roman,serif" font-size="14.00">+ pseudo()</text>
<text text-anchor="start" x="740" y="-1614" font-family="Times New Roman,serif" font-size="14.00">+ ruleset()</text>
<text text-anchor="start" x="740" y="-1590" font-family="Times New Roman,serif" font-size="14.00">+ selector()</text>
<text text-anchor="start" x="740" y="-1566" font-family="Times New Roman,serif" font-size="14.00">+ selectorPrefix()</text>
<text text-anchor="start" x="740" y="-1542" font-family="Times New Roman,serif" font-size="14.00">+ selectors(): StringBuilder</text>
<text text-anchor="start" x="740" y="-1518" font-family="Times New Roman,serif" font-size="14.00">+ statement()</text>
<text text-anchor="start" x="740" y="-1494" font-family="Times New Roman,serif" font-size="14.00">+ stylesheet()</text>
<text text-anchor="start" x="740" y="-1470" font-family="Times New Roman,serif" font-size="14.00">+ variableAtom(): String</text>
<text text-anchor="start" x="740" y="-1446" font-family="Times New Roman,serif" font-size="14.00">+ variableDeclaration()</text>
<text text-anchor="start" x="740" y="-1422" font-family="Times New Roman,serif" font-size="14.00">+ variableInterpolation(): String</text>
<text text-anchor="start" x="740" y="-1398" font-family="Times New Roman,serif" font-size="14.00">+ variableValue(identifier: CommonTree)</text>
<polygon fill="black" stroke="black" points="735,-2182.6 735,-2182.6 1023,-2182.6 1023,-2182.6 735,-2182.6"/>
<polygon fill="black" stroke="black" points="735,-2110.6 735,-2110.6 1023,-2110.6 1023,-2110.6 735,-2110.6"/>
<polygon fill="none" stroke="black" points="735,-1389.6 735,-2207.6 1023,-2207.6 1023,-1389.6 735,-1389.6"/>
</g>
<!-- Processor699872683&#45;&gt;YassTree699872683 -->
<g id="edge5" class="edge">
<title>Processor699872683&#45;&gt;YassTree699872683</title>
<path fill="none" stroke="black" d="M657.87,-2308.19C665.81,-2297.44 671,-2290.4 671,-2290.4 671,-2290.4 697.21,-2228.56 731.02,-2148.78"/>
<polygon fill="black" stroke="black" points="734.28,-2150.05 734.96,-2139.47 727.84,-2147.32 734.28,-2150.05"/>
<text text-anchor="middle" x="756.91" y="-2277.8" font-family="Times New Roman,serif" font-size="14.00">processAST() &#45;&gt; stylesheet()</text>
</g>
<!-- YassParser699872683&#45;&gt;ParserHandler699872683 -->
<g id="edge8" class="edge">
<title>YassParser699872683&#45;&gt;ParserHandler699872683</title>
<path fill="none" stroke="black" d="M259.71,-1341.47C227.16,-1191.96 194.66,-1042.64 176.27,-958.14"/>
<polygon fill="black" stroke="black" points="179.64,-957.19 174.1,-948.16 172.8,-958.68 179.64,-957.19"/>
<text text-anchor="middle" x="269.16" y="-1311" font-family="Times New Roman,serif" font-size="14.00">ph</text>
<text text-anchor="middle" x="269.16" y="-1294.2" font-family="Times New Roman,serif" font-size="14.00">[0..1]</text>
</g>
<!-- DFA15822186474 -->
<g id="node8" class="node">
<title>DFA15822186474</title>
<polygon fill="#ffffff" stroke="transparent" points="394,-905 324,-905 324,-869 394,-869 394,-905"/>
<text text-anchor="start" x="328.67" y="-882.4" font-family="Times New Roman,serif" font-size="14.00">(C)DFA15</text>
<polygon fill="none" stroke="black" points="324,-874 324,-900 394,-900 394,-874 324,-874"/>
</g>
<!-- YassParser699872683&#45;&gt;DFA15822186474 -->
<g id="edge7" class="edge">
<title>YassParser699872683&#45;&gt;DFA15822186474</title>
<path fill="none" stroke="black" d="M359,-1341.47C359,-1161.75 359,-982.31 359,-915.4"/>
<polygon fill="black" stroke="black" points="362.5,-915.29 359,-905.29 355.5,-915.29 362.5,-915.29"/>
<text text-anchor="middle" x="374.94" y="-1311" font-family="Times New Roman,serif" font-size="14.00">dfa15</text>
<text text-anchor="middle" x="374.94" y="-1294.2" font-family="Times New Roman,serif" font-size="14.00">[0..1]</text>
</g>
<!-- YassTree699872683&#45;&gt;Handler699872683 -->
<g id="edge9" class="edge">
<title>YassTree699872683&#45;&gt;Handler699872683</title>
<path fill="none" stroke="black" d="M796.87,-1389.36C789.7,-1353.75 782.46,-1317.75 775.32,-1282.25"/>
<polygon fill="black" stroke="black" points="778.71,-1281.36 773.31,-1272.25 771.85,-1282.74 778.71,-1281.36"/>
<text text-anchor="middle" x="797.16" y="-1311" font-family="Times New Roman,serif" font-size="14.00">h</text>
<text text-anchor="middle" x="797.16" y="-1294.2" font-family="Times New Roman,serif" font-size="14.00">[0..1]</text>
</g>
<!-- args_scope852639703 -->
<g id="node6" class="node">
<title>args_scope852639703</title>
<polygon fill="#ffffff" stroke="transparent" points="1155.5,-912 998.5,-912 998.5,-862 1155.5,-862 1155.5,-912"/>
<text text-anchor="start" x="1004" y="-894.4" font-family="Times New Roman,serif" font-size="14.00">(C)args_scope</text>
<text text-anchor="start" x="1003.81" y="-870.4" font-family="Times New Roman,serif" font-size="14.00"># &#160;&#160;sb: StringBuilder [0..1]</text>
<polygon fill="black" stroke="black" points="999,-887 999,-887 1156,-887 1156,-887 999,-887"/>
<polygon fill="none" stroke="black" points="998.5,-862 998.5,-912 1155.5,-912 1155.5,-862 998.5,-862"/>
</g>
<!-- YassTree699872683&#45;&gt;args_scope852639703 -->
<g id="edge10" class="edge">
<title>YassTree699872683&#45;&gt;args_scope852639703</title>
<path fill="none" stroke="black" d="M969.11,-1389.3C984.16,-1321.11 995,-1272 995,-1272 995,-1272 1049.74,-1015.67 1069.77,-921.86"/>
<polygon fill="black" stroke="black" points="1073.2,-922.53 1071.87,-912.02 1066.36,-921.07 1073.2,-922.53"/>
<text text-anchor="middle" x="1019.54" y="-1311" font-family="Times New Roman,serif" font-size="14.00">args_stack</text>
<text text-anchor="middle" x="1019.54" y="-1294.2" font-family="Times New Roman,serif" font-size="14.00">[0..*]</text>
</g>
<!-- selectors_scope852639703 -->
<g id="node7" class="node">
<title>selectors_scope852639703</title>
<polygon fill="#ffffff" stroke="transparent" points="1396.5,-936 1173.5,-936 1173.5,-838 1396.5,-838 1396.5,-936"/>
<text text-anchor="start" x="1179" y="-918.4" font-family="Times New Roman,serif" font-size="14.00">(C)selectors_scope</text>
<text text-anchor="start" x="1178.79" y="-894.4" font-family="Times New Roman,serif" font-size="14.00"># &#160;&#160;firstTokenIsParentRef: boolean [1]</text>
<text text-anchor="start" x="1179" y="-870.4" font-family="Times New Roman,serif" font-size="14.00"># &#160;&#160;firstTokenSet: boolean [1]</text>
<text text-anchor="start" x="1179" y="-846.4" font-family="Times New Roman,serif" font-size="14.00"># &#160;&#160;sb: StringBuilder [0..1]</text>
<polygon fill="black" stroke="black" points="1174,-911 1174,-911 1397,-911 1397,-911 1174,-911"/>
<polygon fill="none" stroke="black" points="1173.5,-838 1173.5,-936 1396.5,-936 1396.5,-838 1173.5,-838"/>
</g>
<!-- YassTree699872683&#45;&gt;selectors_scope852639703 -->
<g id="edge11" class="edge">
<title>YassTree699872683&#45;&gt;selectors_scope852639703</title>
<path fill="none" stroke="black" d="M1023.05,-1532.88C1094.2,-1402.12 1165,-1272 1165,-1272 1165,-1272 1233.36,-1053.25 1266.89,-945.96"/>
<polygon fill="black" stroke="black" points="1270.28,-946.83 1269.92,-936.25 1263.6,-944.75 1270.28,-946.83"/>
<text text-anchor="middle" x="1195.37" y="-1311" font-family="Times New Roman,serif" font-size="14.00">selectors_stack</text>
<text text-anchor="middle" x="1195.37" y="-1294.2" font-family="Times New Roman,serif" font-size="14.00">[0..*]</text>
</g>
<!-- Mixin430638766 -->
<g id="node9" class="node">
<title>Mixin430638766</title>
<polygon fill="#ffffff" stroke="transparent" points="720,-74 430,-74 430,-24 720,-24 720,-74"/>
<text text-anchor="start" x="435" y="-56.4" font-family="Times New Roman,serif" font-size="14.00">(C)Mixin</text>
<text text-anchor="start" x="434.99" y="-32.4" font-family="Times New Roman,serif" font-size="14.00">&#45; &#160;&#160;_pair: Pair&lt;List&lt;String&gt;, CommonTree&gt; [0..1]</text>
<polygon fill="black" stroke="black" points="430,-49 430,-49 720,-49 720,-49 430,-49"/>
<polygon fill="none" stroke="black" points="430,-24 430,-74 720,-74 720,-24 430,-24"/>
</g>
<!-- Mixins430638766&#45;&gt;Mixin430638766 -->
<g id="edge3" class="edge">
<title>Mixins430638766&#45;&gt;Mixin430638766</title>
<path fill="none" stroke="black" d="M572.96,-203.6C573.49,-163.63 574.13,-115.76 574.55,-84.2"/>
<polygon fill="black" stroke="black" points="578.05,-84.21 574.68,-74.16 571.05,-84.12 578.05,-84.21"/>
<text text-anchor="middle" x="589.16" y="-113" font-family="Times New Roman,serif" font-size="14.00">mxn</text>
<text text-anchor="middle" x="589.16" y="-96.2" font-family="Times New Roman,serif" font-size="14.00">[0..*]</text>
</g>
<!-- Symbol430638766 -->
<g id="node11" class="node">
<title>Symbol430638766</title>
<polygon fill="#ffffff" stroke="transparent" points="988,-74 776,-74 776,-24 988,-24 988,-74"/>
<text text-anchor="start" x="781" y="-56.4" font-family="Times New Roman,serif" font-size="14.00">(C)Symbol</text>
<text text-anchor="start" x="781" y="-32.4" font-family="Times New Roman,serif" font-size="14.00">&#45; &#160;&#160;_pair: Pair&lt;Types, Object&gt; [0..1]</text>
<polygon fill="black" stroke="black" points="776,-49 776,-49 988,-49 988,-49 776,-49"/>
<polygon fill="none" stroke="black" points="776,-24 776,-74 988,-74 988,-24 776,-24"/>
</g>
<!-- SymbolTable430638766&#45;&gt;Symbol430638766 -->
<g id="edge6" class="edge">
<title>SymbolTable430638766&#45;&gt;Symbol430638766</title>
<path fill="none" stroke="black" d="M882,-143.39C882,-121.62 882,-100.84 882,-84.43"/>
<polygon fill="black" stroke="black" points="885.5,-84.32 882,-74.32 878.5,-84.32 885.5,-84.32"/>
<text text-anchor="middle" x="897.16" y="-113" font-family="Times New Roman,serif" font-size="14.00">sym</text>
<text text-anchor="middle" x="897.16" y="-96.2" font-family="Times New Roman,serif" font-size="14.00">[0..*]</text>
</g>
</g>
</svg>
