<?xml version="1.0" encoding="UTF-8" standalone="no"?>
<!DOCTYPE svg PUBLIC "-//W3C//DTD SVG 1.1//EN"
 "http://www.w3.org/Graphics/SVG/1.1/DTD/svg11.dtd">
<!-- Generated by graphviz version 2.44.1 (20200629.0846)
 -->
<!-- Title: g Pages: 1 -->
<svg width="608pt" height="2208pt"
 viewBox="0.00 0.00 608.00 2208.40" xmlns="http://www.w3.org/2000/svg" xmlns:xlink="http://www.w3.org/1999/xlink">
<g id="graph0" class="graph" transform="scale(1 1) rotate(0) translate(4 2204.4)">
<title>g</title>
<polygon fill="white" stroke="transparent" points="-4,4 -4,-2204.4 604,-2204.4 604,4 -4,4"/>
<g id="clust1" class="cluster">
<title>cluster_111433013</title>
<polygon fill="#ececec" stroke="black" points="8,-8 8,-2192.4 592,-2192.4 592,-8 8,-8"/>
<text text-anchor="middle" x="31.95" y="-2175.8" font-family="Times New Roman,serif" font-size="14.00">unibg</text>
</g>
<g id="clust2" class="cluster">
<title>cluster_908121784</title>
<polygon fill="#d8d8d8" stroke="black" points="141,-16 141,-442.4 459,-442.4 459,-16 141,-16"/>
<text text-anchor="middle" x="161.06" y="-425.8" font-family="Times New Roman,serif" font-size="14.00">utils</text>
</g>
<!-- Handler699872683 -->
<g id="node1" class="node">
<title>Handler699872683</title>
<polygon fill="#ffffff" stroke="transparent" points="584,-1272 16,-1272 16,-502 584,-502 584,-1272"/>
<text text-anchor="start" x="21" y="-1254.4" font-family="Times New Roman,serif" font-size="14.00">(C)Handler</text>
<text text-anchor="start" x="21" y="-1230.4" font-family="Times New Roman,serif" font-size="14.00">&#45; &#160;&#160;currentSelector: StringBuilder [0..1]</text>
<text text-anchor="start" x="21" y="-1206.4" font-family="Times New Roman,serif" font-size="14.00">&#45; &#160;&#160;errorList: List&lt;String&gt; [0..*]</text>
<text text-anchor="start" x="21" y="-1182.4" font-family="Times New Roman,serif" font-size="14.00">&#45; &#160;&#160;input: TreeNodeStream [0..1]</text>
<text text-anchor="start" x="21" y="-1158.4" font-family="Times New Roman,serif" font-size="14.00">&#45; &#160;&#160;level: int [1]</text>
<text text-anchor="start" x="21" y="-1134.4" font-family="Times New Roman,serif" font-size="14.00">&#45; &#160;&#160;mixins: Mixins [0..1]</text>
<text text-anchor="start" x="21" y="-1110.4" font-family="Times New Roman,serif" font-size="14.00">&#45; &#160;&#160;propertiesSb: List&lt;StringBuilder&gt; [0..*]</text>
<text text-anchor="start" x="21" y="-1086.4" font-family="Times New Roman,serif" font-size="14.00">&#45; &#160;&#160;sb: List&lt;StringBuilder&gt; [0..*]</text>
<text text-anchor="start" x="21" y="-1062.4" font-family="Times New Roman,serif" font-size="14.00">&#45; &#160;&#160;symbolTable: SymbolTable [0..1]</text>
<text text-anchor="start" x="21" y="-1038.4" font-family="Times New Roman,serif" font-size="14.00">+ checkMixinReference(identifier: CommonTree): boolean</text>
<text text-anchor="start" x="21" y="-1014.4" font-family="Times New Roman,serif" font-size="14.00">&#45; checkVarReference(identifier: CommonTree): boolean</text>
<text text-anchor="start" x="21" y="-990.4" font-family="Times New Roman,serif" font-size="14.00">&#45; checkVarReference(identifier: CommonTree, type: Types): boolean</text>
<text text-anchor="start" x="21" y="-966.4" font-family="Times New Roman,serif" font-size="14.00">+ declareMixin(identifier: CommonTree, mixin: Mixin)</text>
<text text-anchor="start" x="21" y="-942.4" font-family="Times New Roman,serif" font-size="14.00">+ declareVar(identifier: CommonTree, symbol: Symbol)</text>
<text text-anchor="start" x="21" y="-918.4" font-family="Times New Roman,serif" font-size="14.00">&#45; declareVirtualVar(name: String, symbol: Symbol)</text>
<text text-anchor="start" x="21" y="-894.4" font-family="Times New Roman,serif" font-size="14.00">+ decrementLevel()</text>
<text text-anchor="start" x="20.99" y="-870.4" font-family="Times New Roman,serif" font-size="14.00">+ foreach(element: CommonTree, index: CommonTree, value: CommonTree, body: CommonTree)</text>
<text text-anchor="start" x="21" y="-846.4" font-family="Times New Roman,serif" font-size="14.00">+ foreach(element: CommonTree, body: CommonTree)</text>
<text text-anchor="start" x="21" y="-822.4" font-family="Times New Roman,serif" font-size="14.00">&#45; foreach(element: CommonTree, index: String, value: String, body: CommonTree)</text>
<text text-anchor="start" x="21" y="-798.4" font-family="Times New Roman,serif" font-size="14.00">+ getSpecificValue(element: CommonTree, index: CommonTree): String</text>
<text text-anchor="start" x="21" y="-774.4" font-family="Times New Roman,serif" font-size="14.00">&#45; getVar(identifier: CommonTree, checkType: boolean): Symbol</text>
<text text-anchor="start" x="21" y="-750.4" font-family="Times New Roman,serif" font-size="14.00">+ getVarValue(identifier: CommonTree): Object</text>
<text text-anchor="start" x="21" y="-726.4" font-family="Times New Roman,serif" font-size="14.00">&#45; getVarValue(identifier: CommonTree, type: Types): Object</text>
<text text-anchor="start" x="21" y="-702.4" font-family="Times New Roman,serif" font-size="14.00">&#45; handleError(error: Errors, tk: CommonTree)</text>
<text text-anchor="start" x="21" y="-678.4" font-family="Times New Roman,serif" font-size="14.00">+ incrementLevel()</text>
<text text-anchor="start" x="21" y="-654.4" font-family="Times New Roman,serif" font-size="14.00">+ mixinCall(identifier: CommonTree, arguments: List&lt;Object&gt;)</text>
<text text-anchor="start" x="21" y="-630.4" font-family="Times New Roman,serif" font-size="14.00">+ normalizeWhiteSpace(input: StringBuilder): StringBuilder</text>
<text text-anchor="start" x="21" y="-606.4" font-family="Times New Roman,serif" font-size="14.00">+ popSb()</text>
<text text-anchor="start" x="21" y="-582.4" font-family="Times New Roman,serif" font-size="14.00">+ pushSb()</text>
<text text-anchor="start" x="21" y="-558.4" font-family="Times New Roman,serif" font-size="14.00">+ resetCurrentSelector(length: int)</text>
<text text-anchor="start" x="21" y="-534.4" font-family="Times New Roman,serif" font-size="14.00">+ trim(sb: StringBuilder, character: char): StringBuilder</text>
<text text-anchor="start" x="21" y="-510.4" font-family="Times New Roman,serif" font-size="14.00">+ writeLine(string: String)</text>
<polygon fill="black" stroke="black" points="16,-1247 16,-1247 584,-1247 584,-1247 16,-1247"/>
<polygon fill="black" stroke="black" points="16,-1055 16,-1055 584,-1055 584,-1055 16,-1055"/>
<polygon fill="none" stroke="black" points="16,-502 16,-1272 584,-1272 584,-502 16,-502"/>
</g>
<!-- SymbolTable430638766 -->
<g id="node4" class="node">
<title>SymbolTable430638766</title>
<polygon fill="#ffffff" stroke="transparent" points="450.5,-409.6 149.5,-409.6 149.5,-143.6 450.5,-143.6 450.5,-409.6"/>
<text text-anchor="start" x="155" y="-392" font-family="Times New Roman,serif" font-size="14.00">(C)SymbolTable</text>
<text text-anchor="start" x="155" y="-368" font-family="Times New Roman,serif" font-size="14.00">&#45; &#160;&#160;parent: SymbolTable [0..1]</text>
<text text-anchor="start" x="155" y="-344" font-family="Times New Roman,serif" font-size="14.00">&#45; &#160;&#160;sym: Map&lt;String, Symbol&gt; [0..*]</text>
<text text-anchor="start" x="155" y="-320" font-family="Times New Roman,serif" font-size="14.00">+ assign(name: String, value: Symbol): Object</text>
<text text-anchor="start" x="155" y="-296" font-family="Times New Roman,serif" font-size="14.00">+ createScope(): SymbolTable</text>
<text text-anchor="start" x="155" y="-272" font-family="Times New Roman,serif" font-size="14.00">+ defined(name: String): boolean</text>
<text text-anchor="start" x="155" y="-248" font-family="Times New Roman,serif" font-size="14.00">+ definedLocally(name: String): boolean</text>
<text text-anchor="start" x="155" y="-224" font-family="Times New Roman,serif" font-size="14.00">+ resolve(key: String): Symbol</text>
<text text-anchor="start" x="154.63" y="-200" font-family="Times New Roman,serif" font-size="14.00">+ resolve(key: String, defaultObj: Symbol): Symbol</text>
<text text-anchor="start" x="155" y="-176" font-family="Times New Roman,serif" font-size="14.00">+ undefine(name: String): Object</text>
<text text-anchor="start" x="155" y="-152" font-family="Times New Roman,serif" font-size="14.00">+ undefineLocally(name: String): Object</text>
<polygon fill="black" stroke="black" points="150,-384.6 150,-384.6 451,-384.6 451,-384.6 150,-384.6"/>
<polygon fill="black" stroke="black" points="150,-336.6 150,-336.6 451,-336.6 451,-336.6 150,-336.6"/>
<polygon fill="none" stroke="black" points="149.5,-143.6 149.5,-409.6 450.5,-409.6 450.5,-143.6 149.5,-143.6"/>
</g>
<!-- Handler699872683&#45;&gt;SymbolTable430638766 -->
<g id="edge1" class="edge">
<title>Handler699872683&#45;&gt;SymbolTable430638766</title>
<path fill="none" stroke="black" d="M300,-501.99C300,-473.23 300,-445.49 300,-419.91"/>
<polygon fill="black" stroke="black" points="303.5,-419.84 300,-409.84 296.5,-419.84 303.5,-419.84"/>
<text text-anchor="middle" x="336.55" y="-471.4" font-family="Times New Roman,serif" font-size="14.00">symbolTable</text>
<text text-anchor="middle" x="336.55" y="-454.6" font-family="Times New Roman,serif" font-size="14.00">[0..1]</text>
</g>
<!-- YassTree699872683 -->
<g id="node2" class="node">
<title>YassTree699872683</title>
<polygon fill="#ffffff" stroke="transparent" points="444,-2159.6 156,-2159.6 156,-1341.6 444,-1341.6 444,-2159.6"/>
<text text-anchor="start" x="161" y="-2142" font-family="Times New Roman,serif" font-size="14.00">(C)YassTree</text>
<text text-anchor="start" x="161" y="-2118" font-family="Times New Roman,serif" font-size="14.00"># &#160;&#160;args_stack: Stack&lt;args_scope&gt; [0..*]</text>
<text text-anchor="start" x="161" y="-2094" font-family="Times New Roman,serif" font-size="14.00"># &#160;&#160;h: Handler [0..1]</text>
<text text-anchor="start" x="160.9" y="-2070" font-family="Times New Roman,serif" font-size="14.00"># &#160;&#160;selectors_stack: Stack&lt;selectors_scope&gt; [0..*]</text>
<text text-anchor="start" x="161" y="-2046" font-family="Times New Roman,serif" font-size="14.00">+ args(): String</text>
<text text-anchor="start" x="161" y="-2022" font-family="Times New Roman,serif" font-size="14.00">+ attrib()</text>
<text text-anchor="start" x="161" y="-1998" font-family="Times New Roman,serif" font-size="14.00">+ attribRelate()</text>
<text text-anchor="start" x="161" y="-1974" font-family="Times New Roman,serif" font-size="14.00">+ block()</text>
<text text-anchor="start" x="161" y="-1950" font-family="Times New Roman,serif" font-size="14.00">+ dict(): Dict</text>
<text text-anchor="start" x="161" y="-1926" font-family="Times New Roman,serif" font-size="14.00">+ dictItem(dictionary: Dict)</text>
<text text-anchor="start" x="161" y="-1902" font-family="Times New Roman,serif" font-size="14.00">+ element()</text>
<text text-anchor="start" x="161" y="-1878" font-family="Times New Roman,serif" font-size="14.00">+ expr()</text>
<text text-anchor="start" x="161" y="-1854" font-family="Times New Roman,serif" font-size="14.00">+ foreach()</text>
<text text-anchor="start" x="161" y="-1830" font-family="Times New Roman,serif" font-size="14.00">+ foreachBody()</text>
<text text-anchor="start" x="161" y="-1806" font-family="Times New Roman,serif" font-size="14.00">+ identifier(): String</text>
<text text-anchor="start" x="161" y="-1782" font-family="Times New Roman,serif" font-size="14.00"># init()</text>
<text text-anchor="start" x="161" y="-1758" font-family="Times New Roman,serif" font-size="14.00">+ list(): List</text>
<text text-anchor="start" x="161" y="-1734" font-family="Times New Roman,serif" font-size="14.00">+ measurement(): String</text>
<text text-anchor="start" x="161" y="-1710" font-family="Times New Roman,serif" font-size="14.00">+ mixin(): Mixin</text>
<text text-anchor="start" x="161" y="-1686" font-family="Times New Roman,serif" font-size="14.00">+ mixinBody()</text>
<text text-anchor="start" x="161" y="-1662" font-family="Times New Roman,serif" font-size="14.00">+ mixinCall()</text>
<text text-anchor="start" x="161" y="-1638" font-family="Times New Roman,serif" font-size="14.00">+ nextElement()</text>
<text text-anchor="start" x="161" y="-1614" font-family="Times New Roman,serif" font-size="14.00">+ property()</text>
<text text-anchor="start" x="161" y="-1590" font-family="Times New Roman,serif" font-size="14.00">+ pseudo()</text>
<text text-anchor="start" x="161" y="-1566" font-family="Times New Roman,serif" font-size="14.00">+ ruleset()</text>
<text text-anchor="start" x="161" y="-1542" font-family="Times New Roman,serif" font-size="14.00">+ selector()</text>
<text text-anchor="start" x="161" y="-1518" font-family="Times New Roman,serif" font-size="14.00">+ selectorPrefix()</text>
<text text-anchor="start" x="161" y="-1494" font-family="Times New Roman,serif" font-size="14.00">+ selectors(): StringBuilder</text>
<text text-anchor="start" x="161" y="-1470" font-family="Times New Roman,serif" font-size="14.00">+ statement()</text>
<text text-anchor="start" x="161" y="-1446" font-family="Times New Roman,serif" font-size="14.00">+ stylesheet()</text>
<text text-anchor="start" x="161" y="-1422" font-family="Times New Roman,serif" font-size="14.00">+ variableAtom(): String</text>
<text text-anchor="start" x="161" y="-1398" font-family="Times New Roman,serif" font-size="14.00">+ variableDeclaration()</text>
<text text-anchor="start" x="161" y="-1374" font-family="Times New Roman,serif" font-size="14.00">+ variableInterpolation(): String</text>
<text text-anchor="start" x="161" y="-1350" font-family="Times New Roman,serif" font-size="14.00">+ variableValue(identifier: CommonTree)</text>
<polygon fill="black" stroke="black" points="156,-2134.6 156,-2134.6 444,-2134.6 444,-2134.6 156,-2134.6"/>
<polygon fill="black" stroke="black" points="156,-2062.6 156,-2062.6 444,-2062.6 444,-2062.6 156,-2062.6"/>
<polygon fill="none" stroke="black" points="156,-1341.6 156,-2159.6 444,-2159.6 444,-1341.6 156,-1341.6"/>
</g>
<!-- YassTree699872683&#45;&gt;Handler699872683 -->
<g id="edge3" class="edge">
<title>YassTree699872683&#45;&gt;Handler699872683</title>
<path fill="none" stroke="black" d="M300,-1341.51C300,-1321.69 300,-1301.82 300,-1282.04"/>
<polygon fill="black" stroke="black" points="303.5,-1282.03 300,-1272.03 296.5,-1282.03 303.5,-1282.03"/>
<text text-anchor="middle" x="315.16" y="-1311" font-family="Times New Roman,serif" font-size="14.00">h</text>
<text text-anchor="middle" x="315.16" y="-1294.2" font-family="Times New Roman,serif" font-size="14.00">[0..1]</text>
</g>
<!-- Symbol430638766 -->
<g id="node3" class="node">
<title>Symbol430638766</title>
<polygon fill="#ffffff" stroke="transparent" points="406,-74 194,-74 194,-24 406,-24 406,-74"/>
<text text-anchor="start" x="199" y="-56.4" font-family="Times New Roman,serif" font-size="14.00">(C)Symbol</text>
<text text-anchor="start" x="199" y="-32.4" font-family="Times New Roman,serif" font-size="14.00">&#45; &#160;&#160;_pair: Pair&lt;Types, Object&gt; [0..1]</text>
<polygon fill="black" stroke="black" points="194,-49 194,-49 406,-49 406,-49 194,-49"/>
<polygon fill="none" stroke="black" points="194,-24 194,-74 406,-74 406,-24 194,-24"/>
</g>
<!-- SymbolTable430638766&#45;&gt;Symbol430638766 -->
<g id="edge2" class="edge">
<title>SymbolTable430638766&#45;&gt;Symbol430638766</title>
<path fill="none" stroke="black" d="M300,-143.39C300,-121.62 300,-100.84 300,-84.43"/>
<polygon fill="black" stroke="black" points="303.5,-84.32 300,-74.32 296.5,-84.32 303.5,-84.32"/>
<text text-anchor="middle" x="315.16" y="-113" font-family="Times New Roman,serif" font-size="14.00">sym</text>
<text text-anchor="middle" x="315.16" y="-96.2" font-family="Times New Roman,serif" font-size="14.00">[0..*]</text>
</g>
</g>
</svg>
